<svg width="161" height="160" viewBox="0 0 161 160" fill="none" xmlns="http://www.w3.org/2000/svg">
<path d="M4.97392 36.5055C-4.57802 54.0182 2.2448 78.5164 15.2606 99.4726C28.2765 120.429 29.3889 151.875 65.9594 151.875C102.53 151.875 139.705 128.201 152.091 107.639C164.477 86.9776 162.797 59.3311 149.572 39.8506C136.451 20.3701 91.3613 9.05572 65.9594 8.76057C40.5575 8.36702 14.6308 18.9927 4.97392 36.5055Z" fill="#EDF0F2"/>
<g filter="url(#filter0_d_11875_70888)">
<path d="M7.19983 60.9372C7.15514 60.0844 7.55679 59.2696 8.26044 58.7857L36.0917 39.6458C36.8528 39.1224 37.8434 39.0705 38.6551 39.5115L68.3345 55.6374C69.0849 56.0451 69.5695 56.8134 69.6142 57.6662L71.6494 96.4999C71.7203 97.854 70.6801 99.0092 69.326 99.0802L11.8154 102.094C10.4612 102.165 9.30598 101.125 9.23502 99.7709L7.19983 60.9372Z" fill="#8AADF6"/>
<rect x="12.4192" y="47.6137" width="50.0605" height="34.4908" rx="0.320312" transform="rotate(-3 12.4192 47.6137)" fill="white" stroke="#E4E7EB" stroke-width="0.640625"/>
<path d="M16.4655 52.4517L24.4623 52.0326" stroke="#C7CED4" stroke-width="1.28125" stroke-linecap="round" stroke-linejoin="round"/>
<path d="M16.6331 55.6504L26.2294 55.1475" stroke="#C7CED4" stroke-width="1.28125" stroke-linecap="round" stroke-linejoin="round"/>
<path d="M16.9686 62.0479L47.0367 60.472" stroke="#C7CED4" stroke-width="1.28125" stroke-linecap="round" stroke-linejoin="round"/>
<path d="M17.2368 67.166L60.0998 64.9197" stroke="#C7CED4" stroke-width="1.28125" stroke-linecap="round" stroke-linejoin="round"/>
<path d="M17.505 72.2837L58.7687 70.1212" stroke="#C7CED4" stroke-width="1.28125" stroke-linecap="round" stroke-linejoin="round"/>
<path d="M69.3258 99.0784C70.6799 99.0074 71.7201 97.8522 71.6492 96.4981L69.6465 58.2852L62.7685 58.6456C62.1731 58.6768 61.6093 58.9236 61.1825 59.34L40.8825 79.1436C39.9939 80.0104 38.5981 80.0776 37.6303 79.3002L15.7644 61.7341C15.294 61.3562 14.7008 61.1647 14.0982 61.1963L7.23215 61.5562L9.2348 99.7691C9.30577 101.123 10.461 102.163 11.8151 102.092L69.3258 99.0784Z" fill="#A8C1F8"/>
<mask id="mask0_11875_70888" style="mask-type:alpha" maskUnits="userSpaceOnUse" x="7" y="58" width="65" height="45">
<path d="M69.3258 99.0789C70.6799 99.0079 71.7201 97.8527 71.6492 96.4985L69.6465 58.2856L62.7685 58.6461C62.1731 58.6773 61.6093 58.9241 61.1825 59.3405L40.8825 79.144C39.9939 80.0109 38.5981 80.0781 37.6303 79.3006L15.7644 61.7346C15.294 61.3567 14.7008 61.1652 14.0982 61.1968L7.23215 61.5566L9.2348 99.7695C9.30577 101.124 10.461 102.164 11.8151 102.093L69.3258 99.0789Z" fill="#BEE5FB"/>
</mask>
<g mask="url(#mask0_11875_70888)">
<path d="M38.8613 71.8835L8.73864 102.252L72.4013 98.9152L38.8613 71.8835Z" fill="#8AADF6"/>
</g>
<mask id="mask1_11875_70888" style="mask-type:alpha" maskUnits="userSpaceOnUse" x="7" y="57" width="65" height="46">
<path d="M69.326 99.0759C70.6802 99.0049 71.7204 97.8496 71.6494 96.4955L69.619 57.7539L61.8172 58.1628L39.1491 59.3508L15.0065 60.616L7.20468 61.0249L9.23504 99.7665C9.30601 101.121 10.4613 102.161 11.8154 102.09L69.326 99.0759Z" fill="#BEE5FB"/>
</mask>
<g mask="url(#mask1_11875_70888)">
<path d="M36.715 77.2022L9.36402 102.221L71.7784 98.9502L41.5736 76.9323C40.096 75.8552 38.0642 75.9681 36.715 77.2022Z" fill="#A8C1F8"/>
</g>
</g>
<path d="M85.4929 56.6636L69.5626 58.0324" stroke="#234361" stroke-width="0.960938" stroke-miterlimit="10" stroke-linejoin="bevel"/>
<path d="M90.1235 53.0738C86.5815 71.2063 98.4118 88.7756 116.544 92.3176C134.677 95.8596 152.246 84.0293 155.788 65.8968" fill="#234361"/>
<path d="M110.587 39.775C110.747 47.1449 116.85 52.9905 124.22 52.8304C130.734 52.6887 136.058 47.9032 137.094 41.7034C137.228 40.8901 137.291 40.0531 137.272 39.1978C137.112 31.8305 131.01 25.9823 123.64 26.1424C119.804 26.2263 116.385 27.916 114.008 30.558C111.815 32.9954 110.511 36.2409 110.587 39.775Z" fill="#FBE0D4"/>
<path d="M111.132 25.2527C111.198 28.3146 113.732 30.7415 116.794 30.6759C119.501 30.6182 121.711 28.6294 122.141 26.053C122.196 25.7145 122.222 25.3682 122.214 25.0114C122.149 21.9495 119.614 19.5226 116.552 19.5882C114.96 19.6223 113.538 20.3255 112.551 21.4222C111.644 22.4375 111.1 23.7861 111.132 25.2527Z" fill="#1A53D0"/>
<path d="M120.287 23.4945C120.326 25.3599 121.871 26.8397 123.737 26.7977C125.385 26.7609 126.733 25.5514 126.995 23.9825C127.03 23.7778 127.045 23.5653 127.04 23.3475C127.001 21.4821 125.455 20.0023 123.59 20.0443C122.619 20.0653 121.753 20.493 121.153 21.162C120.596 21.7812 120.266 22.6024 120.287 23.4945Z" fill="#1A53D0"/>
<path d="M115.2 46.2744C115.998 46.2571 116.623 45.2132 116.595 43.9426C116.568 42.6721 115.899 41.6561 115.1 41.6734C114.302 41.6906 113.677 42.7346 113.705 44.0051C113.732 45.2756 114.402 46.2916 115.2 46.2744Z" fill="#234361"/>
<path d="M120.007 46.3295C120.806 46.3123 121.431 45.2684 121.403 43.9978C121.376 42.7273 120.706 41.7113 119.908 41.7285C119.11 41.7458 118.485 42.7897 118.512 44.0603C118.54 45.3308 119.209 46.3468 120.007 46.3295Z" fill="#234361"/>
<path d="M132.143 39.3023C132.201 41.9785 134.418 44.101 137.094 44.0433C139.46 43.9908 141.394 42.2539 141.769 40.0002C141.819 39.7037 141.84 39.402 141.835 39.0898C141.777 36.4136 139.56 34.2911 136.884 34.3488C135.491 34.3777 134.25 34.9942 133.384 35.9519C132.589 36.8387 132.117 38.0193 132.143 39.3023Z" fill="#FBE0D4"/>
<path d="M114.337 30.1879C114.337 30.1879 119.136 33.1028 127.674 31.3555L128.44 39.3839L133.635 38.1167C133.635 38.1167 134.883 33.4465 139.409 34.9971C139.409 34.9971 139.585 25.8221 134.165 24.1351C124.696 21.1887 116.46 25.5152 114.337 30.1879Z" fill="#1A53D0"/>
<path d="M70.5002 75L91.2441 73.75" stroke="#234361" stroke-width="0.941245" stroke-miterlimit="10" stroke-linejoin="bevel"/>
<path d="M118.274 47.3911C118.274 47.3911 117.358 49.4586 115.385 48.9706" stroke="#234361" stroke-width="1.07571" stroke-miterlimit="10"/>
<path d="M118.162 110.997C109.4 114.225 79.0296 106.794 79.0296 106.794C79.0296 106.794 61.0978 111.695 60.7645 109.718C60.4183 107.654 70.4857 103.262 70.4857 103.262C70.4857 103.262 56.2897 106.379 56.0026 104.207C55.6224 101.327 69.8504 98.167 69.8504 98.167C69.8504 98.167 58.6368 97.4892 59.0664 96.1228C59.6526 94.2714 71.4194 93.107 71.4194 93.107C71.4194 93.107 67.9975 88.2627 69.0438 87.2418C70.5497 85.7708 77.9603 90.0291 80.4615 91.4262C82.9627 92.8233 109.079 99.3646 113.657 96.0765C114.313 95.6053 115.158 94.8459 116.125 93.8906L134.485 96.0765C128.337 102.993 121.736 109.68 118.162 110.997Z" fill="#EDF0F2"/>
<path d="M146.438 80.3124C146.438 80.3124 124.633 108.034 116.75 110.938M111.75 96.8751C116.328 93.587 129.875 76.5625 129.875 76.5625" stroke="#EDF0F2" stroke-width="0.960938" stroke-miterlimit="10" stroke-linejoin="bevel"/>
<path d="M148.646 79.0711C148.646 79.0711 126.044 108.093 118.162 110.997C109.4 114.225 79.0296 106.794 79.0296 106.794C79.0296 106.794 61.0978 111.695 60.7645 109.718C60.4183 107.654 70.4857 103.262 70.4857 103.262C70.4857 103.262 56.2897 106.379 56.0026 104.207C55.6224 101.327 69.8504 98.167 69.8504 98.167C69.8504 98.167 58.6368 97.4892 59.0664 96.1228C59.6526 94.2714 71.4194 93.107 71.4194 93.107C71.4194 93.107 67.9975 88.2627 69.0438 87.2418C70.5497 85.7708 77.9603 90.0291 80.4615 91.4262C82.9627 92.8233 109.079 99.3646 113.657 96.0765C118.235 92.7884 132.038 75.463 132.038 75.463" stroke="#234361" stroke-width="0.960938" stroke-miterlimit="10" stroke-linejoin="bevel"/>
<defs>
<filter id="filter0_d_11875_70888" x="4.63394" y="37.9321" width="67.0189" height="64.1655" filterUnits="userSpaceOnUse" color-interpolation-filters="sRGB">
<feFlood flood-opacity="0" result="BackgroundImageFix"/>
<feColorMatrix in="SourceAlpha" type="matrix" values="0 0 0 0 0 0 0 0 0 0 0 0 0 0 0 0 0 0 127 0" result="hardAlpha"/>
<feOffset dx="-2.5625" dy="-1.28125"/>
<feComposite in2="hardAlpha" operator="out"/>
<feColorMatrix type="matrix" values="0 0 0 0 0.894118 0 0 0 0 0.905882 0 0 0 0 0.921569 0 0 0 1 0"/>
<feBlend mode="normal" in2="BackgroundImageFix" result="effect1_dropShadow_11875_70888"/>
<feBlend mode="normal" in="SourceGraphic" in2="effect1_dropShadow_11875_70888" result="shape"/>
</filter>
</defs>
</svg>